<svg width="240" height="240" viewBox="0 0 240 240" fill="none" xmlns="http://www.w3.org/2000/svg" role="img" aria-labelledby="title desc">
  <title id="title">Fundacion Alas para Sonar</title>
  <desc id="desc">Marca temporal inspirada en alas, cielo y colores solidarios.</desc>
  <circle cx="120" cy="120" r="110" fill="#12B7E8" stroke="#FFD12A" stroke-width="16"/>
  <circle cx="120" cy="120" r="98" stroke="#E7333F" stroke-width="5"/>
  <path d="M70 139C98 132 119 109 135 62C143 104 124 151 83 167C111 166 159 144 182 99C179 154 134 190 76 188" fill="white" stroke="#14304A" stroke-width="8" stroke-linecap="round" stroke-linejoin="round"/>
  <path d="M55 166C91 154 143 159 191 130" stroke="#FFD12A" stroke-width="11" stroke-linecap="round"/>
  <path d="M61 184C99 172 143 178 181 157" stroke="#1436B8" stroke-width="9" stroke-linecap="round"/>
  <path d="M68 199C105 187 137 193 173 176" stroke="#E7333F" stroke-width="8" stroke-linecap="round"/>
  <text x="120" y="38" text-anchor="middle" font-family="Arial, sans-serif" font-size="15" font-weight="700" fill="#14304A">ALAS PARA SONAR</text>
</svg>
